<?xml version="1.0" standalone="no"?>
<svg xmlns="http://www.w3.org/2000/svg" viewBox="0 0 424.0687473601668 255.3887473601668"><g fill="#4d5167" color="#4d5167" transform="translate(0 0) scale(2.5538875)"><svg width="100.0" height="100.0" x="0.0" y="0.0" viewBox="0 0 100 100"><path fill="none" stroke="currentColor" stroke-width="3" stroke-linecap="round" stroke-miterlimit="10" d="M18.667,2.5"></path><path d="M95.751,2.352c-0.834-0.199-1.667,0.314-1.865,1.145c-0.423,1.766-4.088,5.958-15.815,4.18  c-9.112-1.385-13.057,2.578-14.657,5.29l-6.568-3.236l-3.228,6.554c-3.155-0.768-6.444-1.184-9.834-1.184  c-22.892,0-41.449,18.558-41.449,41.45C2.333,79.443,20.891,98,43.783,98c22.892,0,41.45-18.557,41.45-41.448  c0-12.96-5.95-24.526-15.264-32.126l3.262-6.622l-7.061-3.479c1.199-1.91,4.22-4.682,11.438-3.587  c5.678,0.862,10.359,0.515,13.913-1.03c2.84-1.234,4.849-3.287,5.376-5.49C97.095,3.386,96.582,2.551,95.751,2.352z M71.286,69.47  c-4.487,11.287-11.551,16.732-24.383,18.798c-0.205,0.032-0.408,0.048-0.608,0.048c-1.831,0-3.443-1.328-3.744-3.193  c-0.333-2.071,1.076-4.021,3.146-4.353c10.195-1.64,15.045-5.332,18.533-14.105c0.774-1.949,2.986-2.902,4.931-2.126  C71.108,65.312,72.061,67.521,71.286,69.47z M70.764,51.524c2.318-0.373,4.498,1.203,4.87,3.521c0.374,2.316-1.202,4.497-3.52,4.868  c-2.317,0.373-4.497-1.201-4.87-3.519C66.872,54.077,68.446,51.897,70.764,51.524z"></path></svg></g><path fill="#7995f9" fill-rule="nonzero" d="M12.04 0.24L17.60 0.24L17.60 18.56Q17.60 24.28 15.24 26.62Q12.88 28.96 8.40 28.96L8.40 28.96Q5.52 28.96 3.58 28.20Q1.64 27.44 0 25.80L0 25.80L3.12 22.40Q3.80 23.08 5.18 23.54Q6.56 24 8.34 24Q10.12 24 11.08 23.14Q12.04 22.28 12.04 19.92L12.04 19.92L12.04 0.24ZM42.68 20.32L42.68 20.32Q42.68 24.36 39.72 26.66Q36.76 28.96 32.16 28.96L32.16 28.96Q28.52 28.96 25.12 26.96L25.12 26.96Q23.44 25.92 22.36 24.02Q21.28 22.12 21.28 19.68L21.28 19.68L26.32 19.44Q26.32 21.60 28.16 22.80Q30 24 32.24 24L32.24 24Q37.24 24 37.24 20.48L37.24 20.48Q37.24 17.60 33.84 17.08L33.84 17.08L29.20 16.60Q25.72 16.08 23.68 14.12Q21.64 12.16 21.64 8.48Q21.64 4.80 24.56 2.40Q27.48 0 31.94 0Q36.40 0 39.12 2.26Q41.84 4.52 41.84 8.08L41.84 8.08L36.88 8.32Q36.20 4.84 32.20 4.84L32.20 4.84Q29.76 4.84 28.38 5.88Q27 6.92 27 8.34Q27 9.76 28 10.58Q29 11.40 30.48 11.60L30.48 11.60L35.04 12.08Q42.68 13.12 42.68 20.32Z" transform="translate(270.389 0) scale(3.601)"></path><path fill="#7995f9" fill-rule="nonzero" d="M12.32 0L12.32 4.84L0 4.84L0 0L12.32 0Z" transform="translate(270.389 112.278) scale(12.475)"></path><path fill="#7995f9" fill-rule="nonzero" d="M17.56 23.76L17.56 28.72L9.08 28.72Q4.28 28.72 2.14 26.86Q0 25 0 20.80L0 20.80L0 0.24L5.56 0.24L5.56 20.80Q5.56 22.48 6.32 23.12Q7.08 23.76 9.08 23.76L9.08 23.76L17.56 23.76ZM27.56 0.24L27.56 28.72L22 28.72L22 0.24L27.56 0.24ZM48.60 17.68L48.60 17.68L53.76 17.68Q53.76 23.12 51.04 26.04Q48.32 28.96 43.36 28.96L43.36 28.96Q32.44 28.96 32.44 16.12L32.44 16.12L32.44 13.72Q32.44 3.60 38.04 1.04L38.04 1.04Q40.24 0 43.36 0L43.36 0Q47.92 0 50.78 2.50Q53.64 5 53.64 9.72L53.64 9.72L48.44 9.72Q48 7.36 46.88 6.16Q45.76 4.96 43.36 4.96L43.36 4.96Q40.56 4.96 39.20 6.72L39.20 6.72Q38.24 7.96 38.08 10.96L38.08 10.96Q38 11.92 38 13.56L38 13.56L38 16.04Q38 20.64 39.28 22.32L39.28 22.32Q40.60 24 43.38 24Q46.16 24 47.22 22.46Q48.28 20.92 48.60 17.68ZM77.24 23.76L77.24 28.72L67.16 28.72Q62.36 28.72 60.42 27.06Q58.48 25.40 58.48 21.20L58.48 21.20L58.48 0.24L77.24 0.24L77.24 5.20L64.04 5.20L64.04 11.88L73.28 11.88L72.88 16.84L64.04 16.84L64.04 20.80Q64.04 22.48 64.80 23.12Q65.56 23.76 67.56 23.76L67.56 23.76L77.24 23.76ZM99.32 0.24L104.88 0.24L104.88 25.84Q104.88 27.16 104.08 28.10Q103.28 29.04 102.20 29.04L102.20 29.04Q99.44 29.04 97.68 25.84L97.68 25.84L87.84 10.44L87.84 28.72L82.28 28.72L82.28 0.24L87.64 0.24L99.32 18.88L99.32 0.24ZM125.04 17.68L125.04 17.68L130.20 17.68Q130.20 23.12 127.48 26.04Q124.76 28.96 119.80 28.96L119.80 28.96Q108.88 28.96 108.88 16.12L108.88 16.12L108.88 13.72Q108.88 3.60 114.48 1.04L114.48 1.04Q116.68 0 119.80 0L119.80 0Q124.36 0 127.22 2.50Q130.08 5 130.08 9.72L130.08 9.72L124.88 9.72Q124.44 7.36 123.32 6.16Q122.20 4.96 119.80 4.96L119.80 4.96Q117 4.96 115.64 6.72L115.64 6.72Q114.68 7.96 114.52 10.96L114.52 10.96Q114.44 11.92 114.44 13.56L114.44 13.56L114.44 16.04Q114.44 20.64 115.72 22.32L115.72 22.32Q117.04 24 119.82 24Q122.60 24 123.66 22.46Q124.72 20.92 125.04 17.68ZM153.68 23.76L153.68 28.72L143.60 28.72Q138.80 28.72 136.86 27.06Q134.92 25.40 134.92 21.20L134.92 21.20L134.92 0.24L153.68 0.24L153.68 5.20L140.48 5.20L140.48 11.88L149.72 11.88L149.32 16.84L140.48 16.84L140.48 20.80Q140.48 22.48 141.24 23.12Q142 23.76 144 23.76L144 23.76L153.68 23.76Z" transform="translate(270.389 180.652) scale(1)"></path><path fill="#7995f9" fill-rule="nonzero" d="M17.88 26.76L17.88 31.44L4.24 31.44Q2.48 31.44 1.24 30.72Q0 30 0 28.32L0 28.32Q0 26.92 1.00 25.60L1.00 25.60Q1.36 25.16 2.20 24.24L2.20 24.24L6.48 19.48Q8.32 17.64 9.40 16.14Q10.48 14.64 11 13.88Q11.52 13.12 11.80 12.56L11.80 12.56Q12.48 11.20 12.48 10.24Q12.48 9.28 11.74 8.34Q11 7.40 9.06 7.40Q7.12 7.40 6.38 8.52Q5.64 9.64 5.64 11.68L5.64 11.68L0.40 11.68Q0.40 9.64 0.72 8.18Q1.04 6.72 1.96 5.40L1.96 5.40Q3.76 2.72 9.40 2.72L9.40 2.72Q13.60 2.72 15.88 4.44Q18.16 6.16 18.16 9.36L18.16 9.36Q18.16 11.32 17.26 13.42Q16.36 15.52 15.36 16.80Q14.36 18.08 13 19.64Q11.64 21.20 11.40 21.52L11.40 21.52L6.88 26.76L17.88 26.76ZM41.24 16.40L41.24 16.40L41.24 18.04Q41.24 21 41.04 23Q40.84 25 40.24 26.76Q39.64 28.52 38.56 29.54Q37.48 30.56 35.74 31.12Q34 31.68 31.52 31.68Q29.04 31.68 27.30 31.10Q25.56 30.52 24.48 29.52Q23.40 28.52 22.80 26.74Q22.20 24.96 22.00 22.96Q21.80 20.96 21.80 17.96L21.80 17.96L21.80 16.44Q21.80 10.28 22.76 7.36L22.76 7.36Q23.36 5.60 24.44 4.64L24.44 4.64Q26.72 2.72 31.52 2.72L31.52 2.72Q37.12 2.72 39.18 5.76Q41.24 8.80 41.24 16.40ZM35.88 19.28L35.88 19.28L35.88 14.84Q35.84 10.88 35 9.28Q34.16 7.68 31.52 7.68Q28.88 7.68 28.04 9.26Q27.20 10.84 27.16 14.68L27.16 14.68L27.16 19.28Q27.20 23.56 28.00 25.14Q28.80 26.72 31.56 26.72Q34.32 26.72 35.08 25.20Q35.84 23.68 35.88 19.28ZM62.48 26.76L62.48 31.44L48.84 31.44Q47.08 31.44 45.84 30.72Q44.60 30 44.60 28.32L44.60 28.32Q44.60 26.92 45.60 25.60L45.60 25.60Q45.96 25.16 46.80 24.24L46.80 24.24L51.08 19.48Q52.92 17.64 54 16.14Q55.08 14.64 55.60 13.88Q56.12 13.12 56.40 12.56L56.40 12.56Q57.08 11.20 57.08 10.24Q57.08 9.28 56.34 8.34Q55.60 7.40 53.66 7.40Q51.72 7.40 50.98 8.52Q50.24 9.64 50.24 11.68L50.24 11.68L45 11.68Q45 9.64 45.32 8.18Q45.64 6.72 46.56 5.40L46.56 5.40Q48.36 2.72 54 2.72L54 2.72Q58.20 2.72 60.48 4.44Q62.76 6.16 62.76 9.36L62.76 9.36Q62.76 11.32 61.86 13.42Q60.96 15.52 59.96 16.80Q58.96 18.08 57.60 19.64Q56.24 21.20 56 21.52L56 21.52L51.48 26.76L62.48 26.76ZM77.80 7.68L77.80 31.44L72.36 31.44L72.36 8.08L68.88 6.80L68.88 2.92L73.60 2.92Q76.24 2.92 77.02 3.88Q77.80 4.84 77.80 7.68L77.80 7.68ZM93.72 0L98.60 0L87.20 34.40L82.32 34.40L93.72 0ZM118.04 26.76L118.04 31.44L104.40 31.44Q102.64 31.44 101.40 30.72Q100.16 30 100.16 28.32L100.16 28.32Q100.16 26.92 101.16 25.60L101.16 25.60Q101.52 25.16 102.36 24.24L102.36 24.24L106.64 19.48Q108.48 17.64 109.56 16.14Q110.64 14.64 111.16 13.88Q111.68 13.12 111.96 12.56L111.96 12.56Q112.64 11.20 112.64 10.24Q112.64 9.28 111.90 8.34Q111.16 7.40 109.22 7.40Q107.28 7.40 106.54 8.52Q105.80 9.64 105.80 11.68L105.80 11.68L100.56 11.68Q100.56 9.64 100.88 8.18Q101.20 6.72 102.12 5.40L102.12 5.40Q103.92 2.72 109.56 2.72L109.56 2.72Q113.76 2.72 116.04 4.44Q118.32 6.16 118.32 9.36L118.32 9.36Q118.32 11.32 117.42 13.42Q116.52 15.52 115.52 16.80Q114.52 18.08 113.16 19.64Q111.80 21.20 111.56 21.52L111.56 21.52L107.04 26.76L118.04 26.76ZM139.96 26.76L139.96 31.44L126.32 31.44Q124.56 31.44 123.32 30.72Q122.08 30 122.08 28.32L122.08 28.32Q122.08 26.92 123.08 25.60L123.08 25.60Q123.44 25.16 124.28 24.24L124.28 24.24L128.56 19.48Q130.40 17.64 131.48 16.14Q132.56 14.64 133.08 13.88Q133.60 13.12 133.88 12.56L133.88 12.56Q134.56 11.20 134.56 10.24Q134.56 9.28 133.82 8.34Q133.08 7.40 131.14 7.40Q129.20 7.40 128.46 8.52Q127.72 9.64 127.72 11.68L127.72 11.68L122.48 11.68Q122.48 9.64 122.80 8.18Q123.12 6.72 124.04 5.40L124.04 5.40Q125.84 2.72 131.48 2.72L131.48 2.72Q135.68 2.72 137.96 4.44Q140.24 6.16 140.24 9.36L140.24 9.36Q140.24 11.32 139.34 13.42Q138.44 15.52 137.44 16.80Q136.44 18.08 135.08 19.64Q133.72 21.20 133.48 21.52L133.48 21.52L128.96 26.76L139.96 26.76Z" transform="translate(270.389 217.692) scale(1.096)"></path></svg>
